<svg xmlns="http://www.w3.org/2000/svg" shape-rendering="geometricPrecision" text-rendering="geometricPrecision" image-rendering="optimizeQuality" fill-rule="evenodd" clip-rule="evenodd" viewBox="0 0 512 278.27"><path d="M21.72 0h384.41c5.96 0 11.38 2.45 15.31 6.37l.04.04c3.92 3.93 6.37 9.36 6.37 15.31v27.51l-.05.03h-.01l-.03.02-.05.03-.05.02-.03.02h-.01l-.05.03-.02.01-.03.01-.04.03h-.01l-.04.03-.04.02-.05.03-.02.01-.03.01-.04.03h-.01l-.04.03-.04.02-.05.03-.03.01-.02.02-.04.02-.02.01-.03.02-.05.02v.01l-.04.02-.03.02-.02.01-.04.03-.02.01-.03.01-.04.03h-.01l-.04.03-.03.02-.01.01-.05.03-.02.01-.02.02-.05.02v.01l-.04.02-.04.03h-.01l-.05.03-.02.02-.02.01-.04.03-.01.01-.04.02-.04.03-.05.03-.02.02-.02.01-.05.03-.01.01-.03.02-.04.03h-.01l-.04.03-.03.02-.01.01-.05.03-.01.02-.03.02-.05.03-.04.03-.03.02-.01.01-.05.03-.02.01-.02.02-.05.03v.01l-.04.03-.04.02v.01l-.05.03-.02.02-.02.01-.04.04-.01.01-.04.02-.03.03h-.01l-.04.04-.03.02-.02.01-.04.03-.01.01-.03.03-.04.03-4.17 3.34-4.69 3.76-7.05 5.63-2.35 1.89-5.86 4.69H18.78v186.15c0 .81.32 1.55.84 2.09.54.52 1.28.85 2.1.85h384.41c.82 0 1.56-.32 2.07-.83l.04-.04c.51-.51.83-1.25.83-2.07V233.4l.31-.05.04-.01.26-.05.09-.01.21-.04.13-.02.16-.03.18-.03.12-.02.22-.04.07-.01.27-.05h.02l.28-.05h.03l.26-.04.07-.02.21-.03.12-.02.16-.03.17-.03.1-.01.21-.04.07-.01.25-.04h.02l.27-.05h.03l.24-.04.07-.01.2-.03.11-.02.15-.02.15-.03.11-.01.2-.03.06-.01.24-.04h.02l.25-.04h.02l.23-.04.06-.01.19-.03.1-.01.15-.02.14-.02.11-.02.18-.02.06-.01.22-.04h.02l.24-.03h.02l.22-.03.06-.01.17-.03.1-.01.14-.02.13-.02.1-.01.17-.02.06-.01.2-.03h.02l.23-.03.01-.01.21-.02.05-.01.17-.02.08-.01.14-.02.12-.01.1-.01.15-.02.06-.01.19-.02.02-.01.21-.02h.01l.2-.03h.04l.17-.02.07-.01.13-.01.11-.02.09-.01.14-.01.06-.01.18-.02h.02l.2-.02.19-.02.04-.01.16-.01.06-.01.12-.01.1-.01.09-.01.13-.01.06-.01.16-.02h.02l.19-.01.18-.02h.03l.15-.02h.06l.11-.01.09-.01.09-.01.12-.01h.05l.15-.01h.03l.16-.02c.02 1.19.05 2.33.14 3.4l.02.25.02.24.02.25v.01l.02.24.03.24.02.25v.01l.03.23.02.25.03.24v.03l.03.21.03.24.03.24v.04l.03.2.03.25.03.23.01.05.03.19.03.24.04.24.01.05.03.18.04.24.04.23.01.06.03.18.04.23.05.23.01.07.03.16.05.23.05.23.01.08.03.15.05.23.05.23.02.08.04.15.05.22.06.23.02.09.04.13.05.22.06.23.03.09.03.13.07.22.06.22.03.1.04.12.13.43.04.11.04.11.07.21.07.22.04.11.03.1.21.54.03.09.08.21.09.21.05.12.03.09.09.2.09.2.05.14.04.07.25.54.03.06.2.4.07.14.02.06.11.19.1.2.08.15.03.04v7.5c0 5.94-2.44 11.36-6.38 15.31l-.03.03c-3.95 3.93-9.37 6.38-15.31 6.38H21.72c-5.95 0-11.37-2.45-15.31-6.38l-.03-.03C2.45 267.92 0 262.5 0 256.55V21.72C0 15.74 2.45 10.3 6.38 6.37 10.34 2.45 15.78 0 21.72 0zm40.2 207.71h168.76v17.43H61.92v-17.43zm0-48.25h212.64v17.43H61.92v-17.43zm0-48.25h262v17.43h-262v-17.43zM338 181.28c3.97-1.21 8.18 1.02 9.39 4.99 1.22 3.96-1.01 8.17-4.98 9.39-11.87 3.64-19.85 10.71-22.49 17.33-.71 1.8-.95 3.45-.67 4.8.22 1.03.84 1.98 1.89 2.75 4.36 3.18 13.72 4.01 29.39.21 3.41-.83 7.28-1.88 11.33-3.03 4.71-1.35 8.23-2.4 11.28-3.34l5.39-1.67c8.95-2.75 16.75-5.16 22.18-6.17 39.9-7.43 48.7 1.08 50.83 12.55.51 2.73.46 5.31.42 7.85-.07 3.46-.13 6.77 10.4 5.94 8.57-.67 16.51-3.92 24.6-7.25 4.9-2.01 9.86-4.04 15.34-5.72a7.53 7.53 0 0 1 9.38 5.01 7.52 7.52 0 0 1-5.01 9.37c-4.7 1.43-9.37 3.35-14 5.25-9.25 3.79-18.33 7.52-29.13 8.37-27.03 2.13-26.82-9.27-26.61-21.2.04-1.78.07-3.59-.18-4.91-.64-3.47-5.97-5.56-33.33-.47-4.49.83-11.94 3.13-20.47 5.76l-5.42 1.66c-4.36 1.33-8.53 2.6-11.55 3.46-3.7 1.05-7.65 2.12-11.91 3.15-20.52 4.98-34.15 2.87-41.77-2.68-4.26-3.1-6.8-7.17-7.78-11.76-.9-4.28-.38-8.9 1.43-13.46 4.14-10.39 15.59-21.13 32.05-26.18zM471.8 47.49c-3.05-3.87-8.36-4.51-12.23-1.47l-15.52 12.21 32.86 41.99 15.67-12.31c3.65-2.8 4.29-8.63 1.47-12.22l-22.25-28.2zm-36.12 17 32.83 41.86-66.8 53.5-48.2 5.94c-1.71.1-2.27-.66-1.78-2.19l17.12-45.6 66.83-53.51zm-43.83 89.61-29.57 3.65c-1.06.06-1.4-.4-1.1-1.34l10.51-27.98 20.16 25.67zm36 6.84v29.98h-.09l-.16-.01h-.51l-.03-.01h-2.14l-.17.01h-.27l-.27.01h-.27l-.27.01h-.23l-.04.01h-.27l-.28.01-.16.01h-.12l-.27.01-.28.01h-.09l-.19.01-.28.01-.29.02h-.02l-.26.01-.28.02-.24.01h-.05l-.29.02-.29.01-.16.01-.13.01-.29.02-.29.02h-.1l-.2.02-.3.02-.29.02h-.02l-.28.02-.3.02-.24.02-.07.01-.3.02-.3.03-.17.01-.14.02-.31.02-.31.03-.08.01-.23.02-.31.03-.31.03h-.01l-.3.03-.32.03-.24.03-.07.01-.32.03-.32.03-.17.02-.16.02-.32.03-.32.04-.09.01-.24.03-.32.04-.33.04-.33.04-.34.04-.24.03-.09.01-.33.04-.34.05-.16.02-.18.02v-16.75l.06-.03h.01l.05-.03.05-.02.03-.01.03-.02.16-.09.06-.02.02-.01.03-.02.06-.03.04-.02.02-.01.05-.03.05-.03h.01l.05-.02.05-.03.04-.02.02-.02.24-.13.03-.02.05-.03.05-.02.01-.01.11-.06.01-.01.04-.03.06-.03.03-.02.02-.01.05-.03.06-.03v-.01l.05-.03.05-.03.03-.02.02-.01.06-.04.05-.03.06-.04.05-.03.02-.01.03-.03.05-.03.05-.03h.01l.05-.04.05-.04h.01l.04-.03.06-.04.03-.02.02-.01.05-.04.05-.04h.01l.04-.03.06-.04.02-.02.03-.02.05-.03.05-.04.05-.04.05-.04.02-.01.03-.03.06-.03.03-.03.02-.01.05-.04.05-.04.01-.01.04-.03.05-.04.03-.02.02-.02.05-.04.05-.04 15.37-12.31z"/></svg>