<?xml version="1.0" encoding="utf-8"?><svg version="1.1" id="Layer_1" xmlns="http://www.w3.org/2000/svg" xmlns:xlink="http://www.w3.org/1999/xlink" x="0px" y="0px" viewBox="0 0 80.59 122.88" style="enable-background:new 0 0 80.59 122.88" xml:space="preserve"><style type="text/css">.st0{fill-rule:evenodd;clip-rule:evenodd;}</style><g><path class="st0" d="M53.06,0l27.53,28.63H62.88v22.7H43.25v-22.7H25.53L53.06,0L53.06,0z M27.53,122.88L0,94.25h17.72v-22.7h19.62 v22.7h17.72L27.53,122.88L27.53,122.88z M17.72,68.05V54.49h19.62v13.56H17.72L17.72,68.05z M17.72,51.24v-7.7l19.62,0v7.7 L17.72,51.24L17.72,51.24z M62.88,71.64v7.7H43.25v-7.7H62.88L62.88,71.64z M62.88,54.84v13.56l-19.62,0V54.84L62.88,54.84 L62.88,54.84z"/></g></svg>