<?xml version="1.0" encoding="utf-8"?><svg version="1.1" id="Layer_1" xmlns="http://www.w3.org/2000/svg" xmlns:xlink="http://www.w3.org/1999/xlink" x="0px" y="0px" viewBox="0 0 122.88 67.65" style="enable-background:new 0 0 122.88 67.65" xml:space="preserve"><style type="text/css">.st0{fill-rule:evenodd;clip-rule:evenodd;}</style><g><path class="st0" d="M0,0h8.18v67.65H0V0L0,0z M102.2,0h4.09v67.65h-4.09V0L102.2,0z M93.2,0h2.05v67.65H93.2V0L93.2,0z M51.03,0 h5.84v67.65h-5.84V0L51.03,0z M39.69,0h4.38v67.65h-4.38V0L39.69,0z M15.13,0h2.48v67.65h-2.48V0L15.13,0z M113.24,0h9.64v67.65 h-9.64V0L113.24,0z M78.95,0h7.31v67.65h-7.31V0L78.95,0z M63.82,0H72v67.65h-8.18V0L63.82,0z M24.56,0h8.18v67.65h-8.18V0L24.56,0 z"/></g></svg>