<?xml version="1.0" encoding="utf-8"?><svg version="1.1" id="Layer_1" xmlns="http://www.w3.org/2000/svg" xmlns:xlink="http://www.w3.org/1999/xlink" x="0px" y="0px" viewBox="0 0 122.88 101.625" enable-background="new 0 0 122.88 101.625" xml:space="preserve"><g><path fill-rule="evenodd" clip-rule="evenodd" d="M26.048,88.286V49.861h17.287c7.326,1.311,14.653,5.288,21.979,9.898H78.74 c6.078,0.363,9.262,6.526,3.352,10.573c-4.705,3.456-10.918,3.258-17.287,2.686c-4.392-0.219-4.579,5.683,0,5.703 c1.594,0.125,3.32-0.249,4.828-0.249c7.941-0.012,14.488-1.53,18.494-7.807l2.01-4.693l19.971-9.897 c9.992-3.289,17.1,7.16,9.732,14.435c-14.467,10.522-29.299,19.181-44.471,26.175c-11.021,6.703-22.044,6.473-33.055,0 L26.048,88.286L26.048,88.286L26.048,88.286z M92.367,27.683c2.059,0,3.707,0.59,4.963,1.759c1.25,1.175,1.881,2.734,1.881,4.683 c0,1.942-0.631,3.507-1.881,4.677c-1.256,1.174-2.904,1.759-4.963,1.759s-3.715-0.585-4.969-1.759 c-1.25-1.176-1.875-2.735-1.875-4.677c0-1.949,0.625-3.508,1.875-4.683C88.652,28.273,90.309,27.683,92.367,27.683L92.367,27.683 L92.367,27.683z M82.797,0c15.758,0,28.533,12.774,28.533,28.533c0,15.758-12.775,28.533-28.533,28.533 S54.264,44.292,54.264,28.533C54.264,12.774,67.039,0,82.797,0L82.797,0z M82.797,5.378c12.787,0,23.154,10.367,23.154,23.155 S95.584,51.688,82.797,51.688c-12.789,0-23.155-10.366-23.155-23.154S70.008,5.378,82.797,5.378L82.797,5.378z M88.166,17.44h5.57 L77.424,39.626h-5.57L88.166,17.44L88.166,17.44L88.166,17.44z M92.367,32.139c-0.602,0-1.064,0.178-1.383,0.517 c-0.316,0.355-0.479,0.834-0.479,1.476c0,0.633,0.162,1.119,0.479,1.467c0.318,0.348,0.781,0.518,1.383,0.518 c0.596,0,1.059-0.177,1.377-0.518c0.316-0.348,0.479-0.834,0.479-1.467c0-0.642-0.164-1.128-0.479-1.476 C93.434,32.309,92.971,32.139,92.367,32.139L92.367,32.139L92.367,32.139z M73.15,20.979c-0.604,0-1.061,0.177-1.377,0.518 c-0.316,0.347-0.479,0.834-0.479,1.467c0,0.634,0.162,1.128,0.479,1.475c0.316,0.34,0.773,0.518,1.377,0.518 c0.602,0,1.064-0.178,1.381-0.518c0.316-0.355,0.471-0.841,0.471-1.475c0-0.633-0.154-1.12-0.471-1.467 C74.223,21.156,73.76,20.979,73.15,20.979L73.15,20.979L73.15,20.979z M73.148,16.522c2.059,0,3.715,0.584,4.971,1.76 c1.248,1.175,1.873,2.734,1.873,4.677c0,1.949-0.625,3.508-1.873,4.683c-1.256,1.175-2.912,1.759-4.971,1.759 c-2.057,0-3.707-0.59-4.963-1.759c-1.25-1.175-1.881-2.734-1.881-4.683c0-1.942,0.631-3.507,1.881-4.677 C69.441,17.107,71.092,16.522,73.148,16.522L73.148,16.522L73.148,16.522z M0,46.167h20.844v45.98H0V46.167L0,46.167z"/></g></svg>