<?xml version="1.0" encoding="utf-8"?><svg version="1.1" id="Layer_1" xmlns="http://www.w3.org/2000/svg" xmlns:xlink="http://www.w3.org/1999/xlink" x="0px" y="0px" viewBox="0 0 122.88 74.89" style="enable-background:new 0 0 122.88 74.89" xml:space="preserve"><style type="text/css">.st0{fill-rule:evenodd;clip-rule:evenodd;}</style><g><path class="st0" d="M58.14,57.4c4.78,9.97,19.27,10.32,23.85,0.06c-1.25-1.26-2.17-2.62-3.09-3.96c-0.15-0.22-0.3-0.44-0.46-0.66 c-2.21,1.75-4.89,2.87-8.39,2.86c-3.77-0.01-6.61-1.45-8.93-3.58c-0.14-0.13-0.28-0.26-0.41-0.39c-0.33,0.93-0.76,2.03-1.21,3.07 C59.06,55.79,58.59,56.73,58.14,57.4L58.14,57.4z M122.53,46.67c0.23,0.38,0.35,0.79,0.35,1.22c0,2.25-3.47,4.07-7.76,4.07 c-4.28,0-7.76-1.82-7.76-4.07c0-0.42,0.12-0.83,0.35-1.22c0.99,1.65,3.93,2.85,7.4,2.85C118.6,49.52,121.54,48.32,122.53,46.67 L122.53,46.67z M104.94,52.72c0.23,0.38,0.35,0.79,0.35,1.22c0,2.25-3.47,4.07-7.76,4.07c-4.28,0-7.76-1.82-7.76-4.07 c0-0.42,0.12-0.83,0.35-1.22c0.99,1.65,3.93,2.85,7.4,2.85C101.02,55.57,103.96,54.37,104.94,52.72L104.94,52.72z M98.67,46.78 l-0.02-1.01c0.23-0.01,0.41-0.08,0.56-0.21c0.15-0.13,0.22-0.28,0.24-0.47c0.02-0.21-0.05-0.39-0.21-0.55 c-0.16-0.16-0.41-0.25-0.75-0.28c-0.32-0.03-0.57,0.02-0.74,0.15c-0.17,0.13-0.27,0.31-0.29,0.54c-0.02,0.29,0.08,0.56,0.32,0.81 l-0.19,0.8l-2.68-0.75l0.23-2.65l0.94,0.08l-0.16,1.89l0.87,0.23c-0.09-0.23-0.13-0.47-0.11-0.7c0.04-0.44,0.23-0.81,0.58-1.09 c0.35-0.28,0.78-0.4,1.3-0.35c0.43,0.04,0.8,0.2,1.12,0.47c0.43,0.38,0.62,0.87,0.57,1.48c-0.04,0.48-0.21,0.87-0.49,1.15 C99.47,46.6,99.11,46.76,98.67,46.78L98.67,46.78z M97.54,42.74c3.52,0,6.38,1.12,6.38,2.5c0,1.38-2.86,2.5-6.38,2.5 c-3.52,0-6.38-1.12-6.38-2.5C91.16,43.86,94.02,42.74,97.54,42.74L97.54,42.74L97.54,42.74z M97.54,41.91 c4.28,0,7.76,1.82,7.76,4.07c0,2.25-3.47,4.07-7.76,4.07c-4.28,0-7.76-1.82-7.76-4.07C89.78,43.73,93.26,41.91,97.54,41.91 L97.54,41.91z M104.97,48.69c0.21,0.37,0.33,0.76,0.33,1.17c0,2.25-3.47,4.07-7.76,4.07c-4.28,0-7.76-1.82-7.76-4.07 c0-0.41,0.11-0.8,0.32-1.17c0.96,1.68,3.92,2.9,7.43,2.9C101.05,51.58,104.02,50.36,104.97,48.69L104.97,48.69L104.97,48.69z M117.93,38.26l-0.09,1.01l-3.81-0.33c0.31,0.4,0.53,0.86,0.65,1.37l-0.92-0.08c-0.06-0.27-0.2-0.57-0.41-0.9 c-0.22-0.33-0.48-0.57-0.79-0.71l0.07-0.82L117.93,38.26L117.93,38.26L117.93,38.26z M115.12,36.68c3.52,0,6.38,1.12,6.38,2.5 c0,1.38-2.85,2.5-6.38,2.5c-3.52,0-6.38-1.12-6.38-2.5C108.75,37.8,111.6,36.68,115.12,36.68L115.12,36.68z M115.12,35.85 c4.28,0,7.76,1.82,7.76,4.07c0,2.25-3.47,4.07-7.76,4.07c-4.28,0-7.76-1.82-7.76-4.07C107.36,37.67,110.84,35.85,115.12,35.85 L115.12,35.85z M122.56,42.63c0.21,0.37,0.32,0.76,0.32,1.17c0,2.25-3.47,4.07-7.76,4.07c-4.28,0-7.76-1.82-7.76-4.07 c0-0.41,0.11-0.8,0.33-1.17c0.96,1.68,3.92,2.9,7.43,2.9C118.63,45.53,121.6,44.3,122.56,42.63L122.56,42.63L122.56,42.63z M122.48,54.95c0.26,0.41,0.4,0.84,0.4,1.29c0,2.25-3.47,4.07-7.76,4.07c-4.28,0-7.76-1.82-7.76-4.07c0-0.45,0.14-0.89,0.4-1.29 c1.03,1.61,3.94,2.77,7.36,2.77C118.54,57.73,121.45,56.56,122.48,54.95L122.48,54.95z M122.51,50.77c0.24,0.39,0.37,0.8,0.37,1.23 c0,2.25-3.47,4.07-7.76,4.07c-4.28,0-7.76-1.82-7.76-4.07c0-0.43,0.13-0.84,0.36-1.23c1,1.64,3.93,2.83,7.39,2.83 C118.59,53.6,121.52,52.41,122.51,50.77L122.51,50.77L122.51,50.77z M42.19,59.81c0.74,0.29,1.48,0.58,2.21,0.87 c4.54-1.11,9.41-2.27,12.32-4.3c0.38-0.57,0.78-1.39,1.17-2.28c0.59-1.34,1.13-2.81,1.47-3.81c-1.44-1.69-2.66-3.6-3.84-5.47 l-3.89-6.18c-1.42-2.12-2.16-4.06-2.2-5.65c-0.02-0.75,0.11-1.43,0.38-2.02c0.29-0.63,0.73-1.15,1.34-1.55 c0.28-0.19,0.59-0.35,0.94-0.48c-0.25-3.35-0.35-7.58-0.18-11.11c0.08-0.84,0.24-1.68,0.48-2.52c0.99-3.55,3.48-6.41,6.57-8.37 c1.7-1.08,3.56-1.9,5.51-2.45c1.23-0.35-1.05-4.3,0.22-4.43c6.17-0.63,16.16,5,20.47,9.66c2.16,2.34,3.51,5.43,3.81,9.53 l-0.24,10.09v0c1.08,0.33,1.77,1.01,2.05,2.12c0.31,1.23-0.03,2.95-1.07,5.31l0,0c-0.02,0.04-0.04,0.09-0.07,0.13l-4.43,7.3 c-1.63,2.68-3.28,5.37-5.43,7.49c0.19,0.28,0.39,0.56,0.58,0.85c0.88,1.28,1.76,2.57,2.9,3.72c0.04,0.04,0.07,0.08,0.1,0.12 c5.1,3.6,16.38,4.47,21.15,7.13c1.58,0.88,3.01,2.01,4.16,3.52c1.04,1.38,2.56,4.94,3.28,7.88c-37.27,0-74.53,0-111.79,0 c-1.62-9.02,12.06-13.27,16.26-16.82c1.87-1.59,4.01-3.39,4.25-3.95c-0.6-0.6-1.15-1.24-1.69-1.87l-2.34-2.71l-1.74,0.05 l-3.31,0.09c-2.84-3.27-2.66-10.28-2.39-14.34c1.32-8.14,4.47-14,9.6-17.39c3.47-2.3,5.55-2.42,9.6-2.43 c3.54,0,5.71-0.08,8.73,1.91c9.85,6.48,12.9,21.78,8.08,32.09h-3.44l-0.22,0.26l-0.31,0.36l-1.49,1.8 c-0.87,1.05-1.75,2.09-2.79,3.01c0.62,0.82,2.36,2.34,3.9,3.69C41.33,59.05,41.78,59.44,42.19,59.81L42.19,59.81z M31.33,67.17 c0.04-0.06,0.08-0.12,0.13-0.17c1.15-1.52,2.58-2.64,4.16-3.52c0.76-0.42,1.69-0.8,2.73-1.15c0.5-0.86,0.88-1.83,1.12-2.92 c-1.46-1.28-3-2.65-3.68-3.53l-0.07,0.05c-1.68,1.15-3.75,1.91-6.57,1.9c-2.64-0.01-4.63-0.74-6.26-1.83 c-0.4-0.27-0.78-0.56-1.14-0.86c-0.78,1.03-2.68,2.64-4.38,4.07L17,59.51C16.84,65.36,24.78,68.63,31.33,67.17L31.33,67.17z M54.33,30.72c-0.86,0.03-1.51,0.21-1.96,0.51c-0.25,0.17-0.44,0.39-0.56,0.65c-0.13,0.29-0.2,0.64-0.18,1.04 c0.03,1.18,0.65,2.73,1.85,4.51l0.02,0.03l0,0l3.89,6.18c1.56,2.48,3.19,5,5.22,6.86c1.95,1.79,4.32,2.99,7.45,3 c3.39,0.01,5.87-1.25,7.89-3.13c2.1-1.96,3.75-4.65,5.38-7.33l4.38-7.21c0.82-1.86,1.11-3.11,0.93-3.84 c-0.11-0.43-0.59-0.65-1.41-0.69c-0.17-0.01-0.35-0.01-0.53-0.01c-0.2,0.01-0.4,0.02-0.61,0.04c-0.12,0.01-0.23,0-0.34-0.02 c-0.39,0.02-0.79-0.01-1.2-0.07l1.5-6.64c-11.13,1.75-19.45-6.51-31.21-1.65l0.85,7.82C55.19,30.8,54.74,30.78,54.33,30.72 L54.33,30.72L54.33,30.72z M17.26,48.34c-2.75-9.41-1.46-18.05,5.94-25.45c1.31,4.23,4.24,7.72,9.23,10.3 c2.39,1.77,4.69,3.91,6.93,6.37c0.4-1.63-1.11-3.61-2.95-5.65c1.7,0.84,3.25,2.01,4.36,4.26c1.28,2.62,1.26,4.82,0.84,7.66 c-0.13,0.87-0.32,1.71-0.56,2.5c-0.08,0.04-0.14,0.1-0.2,0.16c-0.2,0.25-0.41,0.49-0.59,0.71c-0.07,0.08-0.13,0.16-0.31,0.37 l-1.49,1.8c-1.14,1.38-2.3,2.75-3.78,3.76c-1.42,0.97-3.16,1.61-5.55,1.61c-2.2,0-3.87-0.63-5.25-1.54 c-1.43-0.95-2.58-2.25-3.67-3.52l-2.73-3.17C17.43,48.43,17.35,48.38,17.26,48.34L17.26,48.34z"/></g></svg>