<svg xmlns="http://www.w3.org/2000/svg" viewBox="0 0 122.88 91.94"><defs><style>.a{fill-rule:evenodd;}</style></defs><title>mortgage</title><path class="a" d="M10.09,91.94V51.64a8.11,8.11,0,0,1-5.56.26,6.52,6.52,0,0,1-3.07-2.15A6.67,6.67,0,0,1,.05,46.29a8.71,8.71,0,0,1,2.1-6.46h0a1.7,1.7,0,0,1,.3-.3L52.47.48A1.84,1.84,0,0,1,54.84.39l37.34,29a26.65,26.65,0,0,0-2.65.74,19.56,19.56,0,0,0-10.6,8.23C68.81,30.21,56.26,20.3,54.05,18.58c-4,3.06-39,30-39,31.16v42.2Zm96-41.71-.36-2.36a2,2,0,0,0,1.25-.66,1.68,1.68,0,0,0,.42-1.18,1.64,1.64,0,0,0-.67-1.24,2.73,2.73,0,0,0-1.85-.43,2.48,2.48,0,0,0-1.69.6,1.7,1.7,0,0,0-.51,1.37,2.39,2.39,0,0,0,1,1.79l-.19,2-7-.85.18-6.37,2.23-.1.22,4.49,2.13.27a3.5,3.5,0,0,1-.48-1.61,3.56,3.56,0,0,1,1-2.74,4.15,4.15,0,0,1,2.94-1.24,4.48,4.48,0,0,1,2.78.75A4,4,0,0,1,109.27,46a4.21,4.21,0,0,1-.79,2.85,3.78,3.78,0,0,1-2.42,1.42Zm15.88,16a6.23,6.23,0,0,1,.94,3.22c0,5.92-9.18,10.73-20.48,10.73S81.92,75.36,81.92,69.44a6.23,6.23,0,0,1,.94-3.22c2.6,4.37,10.37,7.53,19.54,7.53s16.94-3.16,19.54-7.53Zm0,11.73a6.17,6.17,0,0,1,.94,3.21c0,5.92-9.18,10.73-20.48,10.73S81.92,87.08,81.92,81.16A6.17,6.17,0,0,1,82.86,78c2.6,4.36,10.37,7.52,19.54,7.52s16.94-3.16,19.54-7.52ZM82.6,45.66c2.33-4.6,10.31-8,19.8-8h0c11.3,0,20.48,4.81,20.48,10.74S113.7,59.15,102.4,59.15C93,59.15,85,55.8,82.65,51.25c-1.23-2-.06-5.61-.05-5.59Zm19.8-5.79c9.3,0,16.83,3,16.83,6.6s-7.53,6.6-16.83,6.6-16.83-3-16.83-6.6,7.54-6.6,16.83-6.6ZM122,55.57a6.15,6.15,0,0,1,.86,3.08c0,5.93-9.18,10.74-20.48,10.74s-20.48-4.8-20.48-10.74a6.26,6.26,0,0,1,.86-3.08c2.53,4.42,10.36,7.65,19.62,7.65S119.49,60,122,55.57ZM55.53,48.82V64.59H69.68v0A15.88,15.88,0,0,0,55.53,48.82Zm0,19.11V81.62H69.68V67.93ZM52.2,81.61V67.93H38.05V81.62H52.2Zm0-17V48.82A15.88,15.88,0,0,0,38.05,64.55v0Zm-21,24H76.52v3.33H31.2V88.56ZM53.86,45.4A19.19,19.19,0,0,1,73,64.54V84.93H34.72V64.54A19.19,19.19,0,0,1,53.86,45.4ZM82.2,3.11l15,.62V24.06l-15-9.93v-11Z"/></svg>