<svg id="Layer_1" data-name="Layer 1" xmlns="http://www.w3.org/2000/svg" viewBox="0 0 107.65 122.88"><defs><style>.cls-1{fill-rule:evenodd;}</style></defs><title>Insurance-document</title><path class="cls-1" d="M107.51,64.09c1.58,32-10.24,50.91-31.18,58.79C56.1,115.49,44.14,97.41,45,63.6c10.63.56,21.07-1.74,31.18-9.59,9,5.69,20.41,11.07,31.3,10.08Zm-90.7-8.36a2.6,2.6,0,1,1,0-5.19H43.33a2.6,2.6,0,0,1,0,5.19Zm0-15.9a2.6,2.6,0,0,1,0-5.2H57a2.6,2.6,0,0,1,0,5.2Zm0-15.91a2.6,2.6,0,1,1,0-5.2H65a2.6,2.6,0,0,1,0,5.2Zm0,47.72a2.6,2.6,0,1,1,0-5.19h13.1a2.6,2.6,0,1,1,0,5.19ZM82,17h9.16a6.56,6.56,0,0,1,6.55,6.55c0,11,4.73,30.86-5.61,26.41V23.53a.87.87,0,0,0-.28-.65.92.92,0,0,0-.66-.29H82V44.87q-2.76-1.56-5.58-3.36h0l0,0v-35a1,1,0,0,0-.95-.94H6.55a.84.84,0,0,0-.65.29.86.86,0,0,0-.29.65V84.36A.85.85,0,0,0,5.9,85a.92.92,0,0,0,.65.28H36.2q.59,2.9,1.3,5.61H21.32v10.42a.87.87,0,0,0,.28.66,1,1,0,0,0,.66.28H41.4c.84,2,1.76,3.83,2.73,5.62H22.26a6.56,6.56,0,0,1-6.55-6.56V90.92H6.55A6.56,6.56,0,0,1,0,84.36V6.55A6.56,6.56,0,0,1,6.55,0H75.43A6.56,6.56,0,0,1,82,6.55V17ZM77.21,73.73a17.53,17.53,0,0,1,16,13.89h0l-2.23,2.75-2.14-2.75h-.29l-2.24,2.76-2.16-2.76h-.53l-2.23,2.75-2.14-2.75H78.9a.09.09,0,0,1,0,0,1.71,1.71,0,0,1-1.29,1.47v10A5.57,5.57,0,0,1,76.08,103a5.13,5.13,0,0,1-3.7,1.61h0a5.14,5.14,0,0,1-3.7-1.61h0a5.59,5.59,0,0,1-1.54-3.86v-.51h2.24v.51a3.21,3.21,0,0,0,.88,2.21h0a2.91,2.91,0,0,0,2.12.92h0a3,3,0,0,0,2.12-.92,3.21,3.21,0,0,0,.88-2.21V89a1.58,1.58,0,0,1-1-1.36v0h-.9l-2.14,2.75-2.23-2.75h-.53l-2.16,2.76-2.24-2.75h-.29l-2.14,2.75-2.23-2.75h0A17.55,17.55,0,0,1,75.24,73.74l1-1.41.94,1.4Zm-1-14.87c10,6.36,19.1,9.38,26.88,8.66C104.47,95,94.32,111.24,76.33,118,59,111.68,48.68,96.15,49.44,67.1a38.38,38.38,0,0,0,26.79-8.24Z"/></svg>