<svg xmlns="http://www.w3.org/2000/svg" shape-rendering="geometricPrecision" text-rendering="geometricPrecision" image-rendering="optimizeQuality" fill-rule="evenodd" clip-rule="evenodd" viewBox="0 0 512 397.4"><path d="M38.32 369.88V196.03c-7.79 3-15.08 3.06-21.14 1-4.72-1.6-8.72-4.46-11.65-8.15-2.92-3.7-4.79-8.19-5.36-13.15-.86-7.68 1.44-16.37 7.99-24.53.34-.4.7-.79 1.14-1.13L199.2 1.84c2.46-2.26 6.25-2.5 8.98-.37l173.73 135.06c-13.49 10.02-27.07 16.58-40.67 20.47-7.42 2.12-14.91 3.49-22.47 4.22-39.59-32.36-103.73-83.02-113.58-90.69C189.91 82.14 56.95 184.52 56.95 188.84v181.11l-18.63-.07zm331.23-100.6c7.11 4.1 11.73 7.5 17.24 13.57 14.28-22.99 29.78-35.72 49.94-53.8l1.96-.76h22.06c-29.57 32.85-52.5 59.93-73.03 99.53-10.69-22.85-20.22-38.63-41.53-53.26l23.36-5.28zm142.29-77.02c3.07 116.99-38.37 179.61-108.35 205.14l-.02-.01-.02.01c-69.97-25.53-111.42-88.15-108.35-205.14 37.77 2 79.25-8.42 108.35-33.55 32.8 25.26 67.14 35.73 108.39 33.55zM491.96 208c2.51 95.53-31.34 146.66-88.47 167.51l-.02-.01-.02.01c-57.13-20.85-90.97-71.98-88.47-167.51 30.84 1.63 64.71-6.88 88.47-27.4 26.79 20.63 54.83 29.18 88.51 27.4zm-281.15-22.65v59.87h53.72v-.17c0-16.5-6.76-31.51-17.64-42.39-9.49-9.49-22.1-15.84-36.08-17.31zm0 72.52v79.4h53.72v-79.4h-53.72zm-12.64 79.37v-79.37h-53.72v79.4h53.72v-.03zm0-92.02v-59.87c-14.02 1.5-26.6 7.82-36.08 17.31-10.88 10.88-17.64 25.89-17.64 42.39v.17h53.72zm-79.71 118.41h172.03v12.64H118.46v-12.64zm86.03-191.26c20 0 38.17 8.19 51.32 21.34 13.18 13.17 21.33 31.34 21.33 51.31v104.83H131.8V245.02c0-20 8.19-38.17 21.34-51.31 13.18-13.15 31.35-21.34 51.35-21.34zM312.06 11.82l57.14 2.33v77.18l-57.14-37.71v-41.8z"/></svg>